<svg width="180" height="40" viewBox="0 0 180 40" fill="none" xmlns="http://www.w3.org/2000/svg">
<path d="M24.6639 2.01358C27.2548 0.687539 30.0826 0 32.9457 0H40V9.94924H37.1535C32.9933 9.94924 28.8812 10.917 25.0928 12.7876L20.5607 15.0254L30.8411 20.1015H40V30.0508H30.8411L16.1347 38.2049C14.0066 39.3849 11.6521 40 9.26369 40H0V30.0508H4.14236C7.32647 30.0508 10.475 29.3219 13.3834 27.9114L19.4393 24.9746L9.15888 19.8985H0V9.94924H9.15888L24.6639 2.01358Z" fill="#70CE98"/>
<path d="M24.6639 2.01358C27.2548 0.687539 30.0826 0 32.9457 0H40V9.94924H37.1535C32.9933 9.94924 28.8812 10.917 25.0928 12.7876L20.5607 15.0254L30.8411 20.1015H40V30.0508H30.8411L16.1347 38.2049C14.0066 39.3849 11.6521 40 9.26369 40H0V30.0508H4.14236C7.32647 30.0508 10.475 29.3219 13.3834 27.9114L19.4393 24.9746L9.15888 19.8985H0V9.94924H9.15888L24.6639 2.01358Z" fill="#C4C4C4"/>
<path d="M53.834 15.112C55.43 15.112 56.13 14.006 56.718 12.634L60.092 4.99H58.944L56.228 11.234L53.554 4.99H52.28L55.612 12.634C55.164 13.586 54.632 13.95 53.834 13.95C53.624 13.95 53.512 13.936 53.414 13.922L53.288 13.894V15L53.414 15.056C53.512 15.098 53.624 15.112 53.834 15.112ZM61.5745 4.99V15H62.7925V10.114L67.2585 15H68.7285L64.0525 9.848L68.5045 4.976H67.1465L62.7925 9.806V4.99H61.5745ZM74.3965 15.112C75.9925 15.112 76.6925 14.006 77.2805 12.634L80.6545 4.99H79.5065L76.7905 11.234L74.1165 4.99H72.8425L76.1745 12.634C75.7265 13.586 75.1945 13.95 74.3965 13.95C74.1865 13.95 74.0745 13.936 73.9765 13.922L73.8505 13.894V15L73.9765 15.056C74.0745 15.098 74.1865 15.112 74.3965 15.112ZM85.9601 8.658V15H87.1221V7.678H81.3401V15H82.5021V8.658H85.9601ZM89.5588 7.678V17.548H90.7208V13.796C91.1548 14.524 91.9808 15.126 93.1988 15.126C95.2148 15.126 96.5308 13.586 96.5308 11.346V11.234C96.5308 8.938 95.1168 7.552 93.1988 7.552C92.1208 7.552 91.1268 8.196 90.7208 8.91V7.678H89.5588ZM93.0868 14.16C91.6588 14.16 90.6788 13.264 90.6788 11.402V11.29C90.6788 9.414 91.7148 8.518 93.0728 8.518C94.3048 8.518 95.3268 9.442 95.3268 11.29V11.402C95.3268 13.194 94.5428 14.16 93.0868 14.16ZM100.17 15.126C101.248 15.126 101.906 14.762 102.452 14.076V15H103.614V10.17C103.614 8.112 102.34 7.552 100.94 7.552C99.5262 7.552 98.1962 8.154 98.0422 9.834H99.2042C99.3162 8.952 99.8762 8.518 100.884 8.518C102.004 8.518 102.452 8.994 102.452 10.17V10.702H101.402C99.5262 10.702 97.7342 11.29 97.7342 12.97C97.7342 14.468 98.8122 15.126 100.17 15.126ZM100.282 14.202C99.2602 14.202 98.8962 13.74 98.8962 12.97C98.8962 11.906 99.9742 11.528 101.444 11.528H102.452V12.438C102.452 13.558 101.514 14.202 100.282 14.202ZM105.813 7.678V15H108.683C110.293 15 111.301 14.3 111.301 12.844V12.802C111.301 11.85 110.713 11.36 109.775 11.15C110.601 10.94 110.951 10.24 110.951 9.582V9.54C110.951 8.098 109.747 7.678 108.375 7.678H105.813ZM106.975 8.602H108.361C109.257 8.602 109.733 8.812 109.733 9.596V9.638C109.733 10.436 109.341 10.772 108.375 10.772H106.975V8.602ZM106.975 11.696H108.571C109.579 11.696 110.083 12.032 110.083 12.872V12.914C110.083 13.74 109.593 14.076 108.571 14.076H106.975V11.696ZM114.691 12.172C114.803 11.094 114.831 9.624 114.873 8.658H117.505V15H118.667V7.678H113.837L113.795 9.246C113.753 10.142 113.725 11.248 113.627 12.102C113.515 13.11 113.403 13.95 112.787 13.95C112.633 13.95 112.563 13.936 112.493 13.922L112.395 13.894V15L112.507 15.042C112.605 15.056 112.731 15.07 112.885 15.07C114.075 15.07 114.523 14.118 114.691 12.172ZM124.096 15.126C125.762 15.126 126.952 14.356 127.218 12.886H126.056C125.902 13.74 125.258 14.16 124.11 14.16C122.598 14.16 121.814 13.25 121.758 11.57H127.274V11.192C127.274 8.574 125.678 7.552 123.984 7.552C121.968 7.552 120.554 9.092 120.554 11.304V11.416C120.554 13.656 122.024 15.126 124.096 15.126ZM126.084 10.632H121.8C122.01 9.33 122.794 8.518 123.984 8.518C125.202 8.518 125.972 9.12 126.084 10.632ZM133.733 11.738V15H134.895V7.678H133.733V10.758H130.135V7.678H128.973V15H130.135V11.738H133.733ZM137.244 15H138.406L142.144 9.358V15H143.306V7.678H142.144L138.406 13.32V7.678H137.244V15ZM148.596 15.126C150.262 15.126 151.452 14.356 151.718 12.886H150.556C150.402 13.74 149.758 14.16 148.61 14.16C147.098 14.16 146.314 13.25 146.258 11.57H151.774V11.192C151.774 8.574 150.178 7.552 148.484 7.552C146.468 7.552 145.054 9.092 145.054 11.304V11.416C145.054 13.656 146.524 15.126 148.596 15.126ZM150.584 10.632H146.3C146.51 9.33 147.294 8.518 148.484 8.518C149.702 8.518 150.472 9.12 150.584 10.632ZM57.796 26.658V33H58.958V25.678H53.176V33H54.338V26.658H57.796ZM63.2288 33.126C64.3068 33.126 64.9648 32.762 65.5108 32.076V33H66.6728V28.17C66.6728 26.112 65.3988 25.552 63.9988 25.552C62.5848 25.552 61.2548 26.154 61.1008 27.834H62.2628C62.3748 26.952 62.9348 26.518 63.9428 26.518C65.0628 26.518 65.5108 26.994 65.5108 28.17V28.702H64.4608C62.5848 28.702 60.7928 29.29 60.7928 30.97C60.7928 32.468 61.8708 33.126 63.2288 33.126ZM63.3408 32.202C62.3188 32.202 61.9548 31.74 61.9548 30.97C61.9548 29.906 63.0328 29.528 64.5028 29.528H65.5108V30.438C65.5108 31.558 64.5728 32.202 63.3408 32.202ZM68.9553 25.678V35.548H70.1173V31.796C70.5513 32.524 71.3773 33.126 72.5953 33.126C74.6113 33.126 75.9273 31.586 75.9273 29.346V29.234C75.9273 26.938 74.5133 25.552 72.5953 25.552C71.5173 25.552 70.5233 26.196 70.1173 26.91V25.678H68.9553ZM72.4833 32.16C71.0553 32.16 70.0753 31.264 70.0753 29.402V29.29C70.0753 27.414 71.1113 26.518 72.4693 26.518C73.7013 26.518 74.7233 27.442 74.7233 29.29V29.402C74.7233 31.194 73.9393 32.16 72.4833 32.16ZM78.8107 29.262L82.0587 33H83.4727L80.0707 29.122L83.2067 25.678H81.8487L78.8107 29.094V25.678H77.6487V33H78.8107V29.262ZM84.8674 33H86.0294L89.7674 27.358V33H90.9294V25.678H89.7674L86.0294 31.32V25.678H84.8674V33ZM97.8989 29.738V33H99.0609V25.678H97.8989V28.758H94.3009V25.678H93.1389V33H94.3009V29.738H97.8989ZM102.572 26.658H106.058V25.678H101.41V33H102.572V26.658ZM109.508 33.126C110.586 33.126 111.244 32.762 111.79 32.076V33H112.952V28.17C112.952 26.112 111.678 25.552 110.278 25.552C108.864 25.552 107.534 26.154 107.38 27.834H108.542C108.654 26.952 109.214 26.518 110.222 26.518C111.342 26.518 111.79 26.994 111.79 28.17V28.702H110.74C108.864 28.702 107.072 29.29 107.072 30.97C107.072 32.468 108.15 33.126 109.508 33.126ZM109.62 32.202C108.598 32.202 108.234 31.74 108.234 30.97C108.234 29.906 109.312 29.528 110.782 29.528H111.79V30.438C111.79 31.558 110.852 32.202 109.62 32.202ZM116.131 26.826L118.525 33H119.057L121.479 26.826V33H122.627V25.678H121.031L118.889 31.18L116.803 25.678H115.165V33H116.131V26.826ZM124.994 33H126.156L129.894 27.358V33H131.056V25.678H129.894L126.156 31.32V25.678H124.994V33Z" fill="#808080"/>
</svg>
